<mxfile host="www.draw.io" modified="2019-11-07T12:50:33.460Z" agent="Mozilla/5.0 (Macintosh; Intel Mac OS X 10_14_6) AppleWebKit/537.36 (KHTML, like Gecko) Chrome/78.0.3904.87 Safari/537.36" etag="XCEH5rZWTKYULKNwhs_u" version="12.2.2" type="github" pages="1">
  <diagram id="YiLU9xerLvJfQmLYHXsu" name="ページ1">
    <mxGraphModel dx="2388" dy="643" grid="1" gridSize="10" guides="1" tooltips="1" connect="1" arrows="1" fold="0" page="0" pageScale="1" pageWidth="1100" pageHeight="850" background="none" math="0" shadow="0">
      <root>
        <mxCell id="0"/>
        <mxCell id="1" parent="0"/>
        <mxCell id="RG_dN2_xKXj0XLAnKESM-29" value="名前" style="swimlane;fontStyle=1;align=center;verticalAlign=top;childLayout=stackLayout;horizontal=1;startSize=26;horizontalStack=0;resizeParent=1;resizeParentMax=0;resizeLast=0;collapsible=1;marginBottom=0;rounded=0;shadow=0;labelBackgroundColor=none;strokeColor=#36393d;fillColor=#eeeeee;" vertex="1" parent="1">
          <mxGeometry x="-1160" y="320" width="160" height="112" as="geometry"/>
        </mxCell>
        <mxCell id="RG_dN2_xKXj0XLAnKESM-30" value="+ 見えるもの" style="text;strokeColor=none;fillColor=none;align=left;verticalAlign=middle;spacingLeft=4;spacingRight=4;overflow=hidden;rotatable=0;points=[[0,0.5],[1,0.5]];portConstraint=eastwest;" vertex="1" parent="RG_dN2_xKXj0XLAnKESM-29">
          <mxGeometry y="26" width="160" height="26" as="geometry"/>
        </mxCell>
        <mxCell id="RG_dN2_xKXj0XLAnKESM-31" value="[ 入力すること ]" style="text;strokeColor=none;fillColor=none;align=left;verticalAlign=middle;spacingLeft=4;spacingRight=4;overflow=hidden;rotatable=0;points=[[0,0.5],[1,0.5]];portConstraint=eastwest;" vertex="1" parent="RG_dN2_xKXj0XLAnKESM-29">
          <mxGeometry y="52" width="160" height="26" as="geometry"/>
        </mxCell>
        <mxCell id="RG_dN2_xKXj0XLAnKESM-32" value="" style="line;strokeWidth=1;fillColor=none;align=left;verticalAlign=middle;spacingTop=-1;spacingLeft=3;spacingRight=3;rotatable=0;labelPosition=right;points=[];portConstraint=eastwest;" vertex="1" parent="RG_dN2_xKXj0XLAnKESM-29">
          <mxGeometry y="78" width="160" height="8" as="geometry"/>
        </mxCell>
        <mxCell id="RG_dN2_xKXj0XLAnKESM-33" value="&gt; すること" style="text;strokeColor=none;fillColor=none;align=left;verticalAlign=middle;spacingLeft=4;spacingRight=4;overflow=hidden;rotatable=0;points=[[0,0.5],[1,0.5]];portConstraint=eastwest;" vertex="1" parent="RG_dN2_xKXj0XLAnKESM-29">
          <mxGeometry y="86" width="160" height="26" as="geometry"/>
        </mxCell>
        <mxCell id="RG_dN2_xKXj0XLAnKESM-38" value="Ogoruken" style="text;strokeColor=none;fillColor=none;html=1;fontSize=24;fontStyle=1;verticalAlign=middle;align=center;rounded=0;shadow=0;labelBackgroundColor=none;fontFamily=Roboto;" vertex="1" parent="1">
          <mxGeometry x="-1200" y="240" width="160" height="40" as="geometry"/>
        </mxCell>
      </root>
    </mxGraphModel>
  </diagram>
</mxfile>
